<svg height="496pt" viewBox="0 -68 496 496" width="496pt" xmlns="http://www.w3.org/2000/svg"><path d="m480 0h-464c-8.835938 0-16 7.164062-16 16v328c0 8.835938 7.164062 16 16 16h464c8.835938 0 16-7.164062 16-16v-328c0-8.835938-7.164062-16-16-16zm-464 16h464v64h-464zm0 328v-248h464v248zm0 0"/><path d="m48 24c-13.253906 0-24 10.746094-24 24s10.746094 24 24 24 24-10.746094 24-24-10.746094-24-24-24zm0 32c-4.417969 0-8-3.582031-8-8s3.582031-8 8-8 8 3.582031 8 8-3.582031 8-8 8zm0 0"/><path d="m104 24c-13.253906 0-24 10.746094-24 24s10.746094 24 24 24 24-10.746094 24-24-10.746094-24-24-24zm0 32c-4.417969 0-8-3.582031-8-8s3.582031-8 8-8 8 3.582031 8 8-3.582031 8-8 8zm0 0"/><path d="m160 24c-13.253906 0-24 10.746094-24 24s10.746094 24 24 24 24-10.746094 24-24-10.746094-24-24-24zm0 32c-4.417969 0-8-3.582031-8-8s3.582031-8 8-8 8 3.582031 8 8-3.582031 8-8 8zm0 0"/><path d="m464 32h-8c-4.417969 0-8 3.582031-8 8s3.582031 8 8 8h8c4.417969 0 8-3.582031 8-8s-3.582031-8-8-8zm0 0"/><path d="m424 32h-56c-4.417969 0-8 3.582031-8 8s3.582031 8 8 8h56c4.417969 0 8-3.582031 8-8s-3.582031-8-8-8zm0 0"/><path d="m80 224h-24v-8h16c4.417969 0 8-3.582031 8-8s-3.582031-8-8-8h-16v-8h24c4.417969 0 8-3.582031 8-8s-3.582031-8-8-8h-32c-4.417969 0-8 3.582031-8 8v48c0 4.417969 3.582031 8 8 8h32c4.417969 0 8-3.582031 8-8s-3.582031-8-8-8zm0 0"/><path d="m296 176h-32c-4.417969 0-8 3.582031-8 8v48c0 4.417969 3.582031 8 8 8s8-3.582031 8-8v-12.6875l16 16c1.941406 2.5625 4.816406 4.246094 8 4.6875 3.234375 0 6.152344-1.949219 7.390625-4.9375s.550781-6.429688-1.734375-8.71875l-10.34375-10.34375h4.6875c4.417969 0 8-3.582031 8-8v-24c0-4.417969-3.582031-8-8-8zm-8 24h-16v-8h16zm0 0"/><path d="m160 232v-12.6875l16 16c1.941406 2.5625 4.816406 4.246094 8 4.6875 3.234375 0 6.152344-1.949219 7.390625-4.9375s.550781-6.429688-1.734375-8.71875l-10.34375-10.34375h4.6875c4.417969 0 8-3.582031 8-8v-24c0-4.417969-3.582031-8-8-8h-32c-4.417969 0-8 3.582031-8 8v48c0 4.417969 3.582031 8 8 8s8-3.582031 8-8zm0-40h16v8h-16zm0 0"/><path d="m104 232v-12.6875l16 16c1.941406 2.5625 4.816406 4.246094 8 4.6875 3.234375 0 6.152344-1.949219 7.390625-4.9375s.550781-6.429688-1.734375-8.71875l-10.34375-10.34375h4.6875c4.417969 0 8-3.582031 8-8v-24c0-4.417969-3.582031-8-8-8h-32c-4.417969 0-8 3.582031-8 8v48c0 4.417969 3.582031 8 8 8s8-3.582031 8-8zm0-40h16v8h-16zm0 0"/><path d="m240 240c4.417969 0 8-3.582031 8-8v-48c0-4.417969-3.582031-8-8-8h-32c-4.417969 0-8 3.582031-8 8v48c0 4.417969 3.582031 8 8 8zm-24-48h16v32h-16zm0 0"/><path d="m136 256h-32c-4.417969 0-8 3.582031-8 8v48c0 4.417969 3.582031 8 8 8h32c4.417969 0 8-3.582031 8-8v-48c0-4.417969-3.582031-8-8-8zm-8 48h-16v-32h16zm0 0"/><path d="m80 256c-4.417969 0-8 3.582031-8 8v16h-16v-16c0-4.417969-3.582031-8-8-8s-8 3.582031-8 8v24c0 4.417969 3.582031 8 8 8h24v16c0 4.417969 3.582031 8 8 8s8-3.582031 8-8v-48c0-4.417969-3.582031-8-8-8zm0 0"/><path d="m192 256c-4.417969 0-8 3.582031-8 8v16h-16v-16c0-4.417969-3.582031-8-8-8s-8 3.582031-8 8v24c0 4.417969 3.582031 8 8 8h24v16c0 4.417969 3.582031 8 8 8s8-3.582031 8-8v-48c0-4.417969-3.582031-8-8-8zm0 0"/><path d="m256 304h-40c-4.417969 0-8 3.582031-8 8s3.582031 8 8 8h40c4.417969 0 8-3.582031 8-8s-3.582031-8-8-8zm0 0"/><path d="m288 304h-8c-4.417969 0-8 3.582031-8 8s3.582031 8 8 8h8c4.417969 0 8-3.582031 8-8s-3.582031-8-8-8zm0 0"/></svg>