<?xml version="1.0" encoding="utf-8"?>
<!-- Generator: Adobe Illustrator 17.1.0, SVG Export Plug-In . SVG Version: 6.00 Build 0)  -->
<!DOCTYPE svg PUBLIC "-//W3C//DTD SVG 1.1//EN" "http://www.w3.org/Graphics/SVG/1.1/DTD/svg11.dtd">
<svg version="1.1" id="Layer_1" xmlns="http://www.w3.org/2000/svg" xmlns:xlink="http://www.w3.org/1999/xlink" x="0px" y="0px"
	 viewBox="0 0 60 72" style="enable-background:new 0 0 60 72;" xml:space="preserve">
<style type="text/css">
	.st0{fill:#52BAD5;}
	.st1{fill:#E85C41;}
	.st2{fill:#B7B7B7;}
	.st3{fill:#72C1B0;}
</style>
<path id="Oval_1_copy_2_15_" class="st2" d="M30,20c8.8,0,16,7.2,16,16c0,8.8-7.2,16-16,16c-8.8,0-16-7.2-16-16
	C14,27.2,21.2,20,30,20 M30,18c-9.9,0-18,8.1-18,18c0,9.9,8.1,18,18,18c9.9,0,18-8.1,18-18C48,26.1,39.9,18,30,18L30,18z"/>
<path class="st2" d="M49.4,0H0v72h60V10.6L49.4,0z M57.6,11H49V2.4L57.6,11z M58,70H2V2h45v11h11V70z"/>
<rect x="29" y="28" class="st2" width="2" height="16"/>
<rect x="22" y="35" class="st2" width="16" height="2"/>
</svg>
