<?xml version="1.0" encoding="utf-8"?>
<!-- Generator: Adobe Illustrator 21.1.0, SVG Export Plug-In . SVG Version: 6.00 Build 0)  -->
<svg version="1.1" id="Layer_1" xmlns="http://www.w3.org/2000/svg" xmlns:xlink="http://www.w3.org/1999/xlink" x="0px" y="0px"
	 viewBox="0 0 20 20" style="enable-background:new 0 0 20 20;" xml:space="preserve">
<style type="text/css">
	.st0{fill:#92C35F;}
	.st1{fill:#FFFFFF;}
	.st2{opacity:0.7;}
</style>
<g>
	<path class="st0" d="M0,0v20h20V0H0z M18,18H2V2h16V18z"/>
	<path class="st1" d="M2,2v16h16V2H2z M16,16l-4-5l-2,2L7,9l-3,3V4h12V16z"/>
	<path class="st0" d="M4,4v8l3-3l3,4l2-2l4,5V4H4z M13.4,8.4C13,8.8,12.6,9,12,9c-0.5,0-1-0.2-1.4-0.6C10.2,8,10,7.6,10,7
		c0-0.5,0.2-1,0.6-1.4C11,5.2,11.5,5,12,5c0.6,0,1,0.2,1.4,0.6C13.8,6,14,6.5,14,7C14,7.6,13.8,8,13.4,8.4z"/>
	<path class="st1" d="M14,7c0,0.6-0.2,1-0.6,1.4C13,8.8,12.6,9,12,9c-0.5,0-1-0.2-1.4-0.6C10.2,8,10,7.6,10,7c0-0.5,0.2-1,0.6-1.4
		C11,5.2,11.5,5,12,5c0.6,0,1,0.2,1.4,0.6C13.8,6,14,6.5,14,7z"/>
</g>
<title>Shape</title>
<desc>Created with Sketch.</desc>
<g id="Hifi" class="st2">
	<g id="Desktop-HD-Copy-5" transform="translate(-27.000000, -241.000000)">
		<g id="Icon-_x2F_-System-_x2F_-Pic" transform="translate(27.000000, 241.000000)">
			<g id="Shape">
			</g>
		</g>
	</g>
</g>
</svg>
