<svg id="Layer_1" data-name="Layer 1" xmlns="http://www.w3.org/2000/svg" viewBox="0 0 24 22"><title>instagram</title><path d="M12,2c2.94,0,3.28,0,4.45.06a6.09,6.09,0,0,1,2,.38,3.41,3.41,0,0,1,1.26.82,3.41,3.41,0,0,1,.82,1.26,6.09,6.09,0,0,1,.38,2C21,7.71,21,8.06,21,11s0,3.28-.06,4.45a6.09,6.09,0,0,1-.38,2,3.64,3.64,0,0,1-2.09,2.09,6.09,6.09,0,0,1-2,.38C15.29,20,14.94,20,12,20S8.71,20,7.55,20a6.09,6.09,0,0,1-2-.38,3.41,3.41,0,0,1-1.26-.82,3.41,3.41,0,0,1-.82-1.26,6.09,6.09,0,0,1-.38-2C3,14.29,3,13.94,3,11S3,7.72,3,6.56a6.09,6.09,0,0,1,.38-2,3.41,3.41,0,0,1,.82-1.26,3.41,3.41,0,0,1,1.26-.82,6.09,6.09,0,0,1,2-.38C8.71,2,9.06,2,12,2m0-2C9,0,8.64,0,7.46.07A8.07,8.07,0,0,0,4.79.58,5.39,5.39,0,0,0,2.85,1.85,5.39,5.39,0,0,0,1.58,3.79a8.08,8.08,0,0,0-.51,2.67C1,7.64,1,8,1,11s0,3.36.07,4.54a8.07,8.07,0,0,0,.51,2.67,5.39,5.39,0,0,0,1.27,1.95,5.39,5.39,0,0,0,1.95,1.27,8.07,8.07,0,0,0,2.67.51C8.64,22,9,22,12,22s3.36,0,4.54-.07a8.07,8.07,0,0,0,2.67-.51,5.62,5.62,0,0,0,3.22-3.22,8.07,8.07,0,0,0,.51-2.67C23,14.36,23,14,23,11s0-3.36-.07-4.54a8.07,8.07,0,0,0-.51-2.67,5.39,5.39,0,0,0-1.27-1.95A5.39,5.39,0,0,0,19.21.58,8.08,8.08,0,0,0,16.54.07C15.36,0,15,0,12,0h0Z"/><path d="M12,5.35A5.65,5.65,0,1,0,17.65,11h0A5.65,5.65,0,0,0,12,5.35Zm0,9.32A3.67,3.67,0,1,1,15.67,11,3.67,3.67,0,0,1,12,14.67Z"/><circle cx="17.87" cy="5.13" r="1.32"/></svg>